<?xml version="1.0" encoding="utf-8"?>
<!-- Generator: Adobe Illustrator 13.0.0, SVG Export Plug-In . SVG Version: 6.00 Build 14948)  -->
<!DOCTYPE svg PUBLIC "-//W3C//DTD SVG 1.1//EN" "http://www.w3.org/Graphics/SVG/1.1/DTD/svg11.dtd">
<svg version="1.1" id="Layer_1" xmlns="http://www.w3.org/2000/svg" xmlns:xlink="http://www.w3.org/1999/xlink" x="0px" y="0px"
	 width="472.477px" height="472.477px" viewBox="0 0 472.477 472.477" enable-background="new 0 0 472.477 472.477"
	 xml:space="preserve">
<g>
	<circle fill="#FF7058" cx="238.239" cy="236.504" r="236.239"/>
	<g>
		<path fill="#434C6D" d="M372.644,159.171h-45.462l-21.333-53.333H170.628l-21.334,53.333h-7.056v-26.667h-32v26.667h-6.405
			c-14.117,0-25.595,11.477-25.595,25.595v156.629c0,14.214,11.563,25.776,25.776,25.776h268.447
			c14.213,0,25.776-11.563,25.776-25.776V184.766C398.239,170.648,386.761,159.171,372.644,159.171z M120.906,143.17h10.666v16
			h-10.666V143.17z M387.572,341.395c0,8.337-6.778,15.109-15.109,15.109H104.015c-8.331,0-15.109-6.778-15.109-15.109V184.766
			c0-8.229,6.698-14.928,14.928-14.928h6.405h32h14.277l21.333-53.333h120.778l21.334,53.333h52.683
			c8.229,0,14.928,6.699,14.928,14.928V341.395L387.572,341.395z"/>
		<path fill="#434C6D" d="M238.239,153.837c-52.934,0-96,43.066-96,96c0,52.934,43.066,96,96,96s96-43.066,96-96
			C334.239,196.904,291.172,153.837,238.239,153.837z M238.239,335.171c-47.051,0-85.333-38.283-85.333-85.333
			c0-47.051,38.282-85.334,85.333-85.334s85.333,38.283,85.333,85.334C323.572,296.888,285.289,335.171,238.239,335.171z"/>
		<path fill="#434C6D" d="M238.239,185.837c-35.29,0-64,28.709-64,64c0,35.291,28.71,63.999,64,63.999s64-28.708,64-63.999
			C302.239,214.546,273.529,185.837,238.239,185.837z M238.239,303.17c-29.407,0-53.333-23.925-53.333-53.332
			c0-29.408,23.926-53.334,53.333-53.334c29.408,0,53.333,23.926,53.333,53.334C291.572,279.245,267.647,303.17,238.239,303.17z"/>
		<path fill="#434C6D" d="M355.572,180.504c-11.766,0-21.333,9.568-21.333,21.333c0,11.766,9.567,21.333,21.333,21.333
			s21.333-9.568,21.333-21.333C376.905,190.072,367.337,180.504,355.572,180.504z M355.572,212.504
			c-5.883,0-10.667-4.784-10.667-10.667c0-5.883,4.784-10.667,10.667-10.667s10.667,4.784,10.667,10.667
			C366.239,207.721,361.454,212.504,355.572,212.504z"/>
	</g>
</g>
</svg>
